<svg xmlns="http://www.w3.org/2000/svg" width="28" height="28" viewBox="0 0 28 28">
  <g id="fb" transform="translate(21923 -321)">
    <rect id="Rectangle_7627" data-name="Rectangle 7627" width="28" height="28" transform="translate(-21923 321)" fill="none"/>
    <path id="f1c4" d="M18.862,0a1.131,1.131,0,0,1,.786.325A1,1,0,0,1,20,1.084V18.862a1,1,0,0,1-.352.759,1.131,1.131,0,0,1-.786.325H13.767v-7.7h2.6l.379-3.035H13.767V7.263q0-1.463,1.518-1.463h1.572V3.144a12.664,12.664,0,0,0-2.331-.163,3.774,3.774,0,0,0-2.791,1.057,3.993,3.993,0,0,0-1.057,2.954V9.214h-2.6v3.035h2.6v7.7H1.084a1.04,1.04,0,0,1-.759-.325A1.04,1.04,0,0,1,0,18.862V1.084A1.04,1.04,0,0,1,.325.325,1.04,1.04,0,0,1,1.084,0ZM20,20.379" fill="#fff" transform="translate(-21918.883 325)"/>
  </g>
</svg>
