<svg xmlns="http://www.w3.org/2000/svg" width="28" height="28" viewBox="0 0 28 28">
  <g id="insta" transform="translate(21929 -351)">
    <rect id="Rectangle_7628" data-name="Rectangle 7628" width="28" height="28" transform="translate(-21929 351)" fill="none"/>
    <g id="Group_11686" data-name="Group 11686" transform="translate(-21924.883 355)">
      <g id="Group_11683" data-name="Group 11683">
        <path id="Path_1517"  fill="#FFFFFF" data-name="Path 1517" d="M13.75,20H5.715A5.717,5.717,0,0,1,0,14.289V5.715A5.718,5.718,0,0,1,5.715,0H13.75a5.721,5.721,0,0,1,5.715,5.715v8.573A5.723,5.723,0,0,1,13.75,20ZM5.715,1.466A4.253,4.253,0,0,0,1.466,5.715v8.573a4.253,4.253,0,0,0,4.249,4.249H13.75A4.253,4.253,0,0,0,18,14.289V5.715A4.253,4.253,0,0,0,13.75,1.466H5.715Z"/>
      </g>
      <g id="Group_11684" data-name="Group 11684" transform="translate(4.41 4.65)">
        <path id="Path_1518"  fill="#FFFFFF" data-name="Path 1518" d="M111.02,122.087a5.328,5.328,0,0,1-5.32-5.32,5.409,5.409,0,0,1,1.631-3.861,5.075,5.075,0,0,1,3.714-1.46,5.5,5.5,0,0,1,3.973,1.614,5.136,5.136,0,0,1,1.318,3.722h0a5.433,5.433,0,0,1-1.577,3.739A5.208,5.208,0,0,1,111.02,122.087Zm-.121-8.85a3.32,3.32,0,0,0-2.317.954,3.608,3.608,0,0,0-1.087,2.572,3.526,3.526,0,1,0,7.052-.021l.9.021-.9-.021a3.414,3.414,0,0,0-.832-2.459,3.783,3.783,0,0,0-2.719-1.05A.741.741,0,0,1,110.9,113.236Z" transform="translate(-105.7 -111.444)"/>
      </g>
      <g id="Group_11685" data-name="Group 11685" transform="translate(13.931 3.267)">
        <ellipse id="Ellipse_502"  fill="#FFFFFF" data-name="Ellipse 502" cx="1.242" cy="1.242" rx="1.242" ry="1.242"/>
      </g>
    </g>
  </g>
</svg>
