<svg xmlns="http://www.w3.org/2000/svg" width="28" height="28" viewBox="0 0 28 28">
  <g id="linkedin" transform="translate(21805 -351)">
    <rect id="Rectangle_7630" data-name="Rectangle 7630" width="28" height="28" transform="translate(-21805 351)" fill="none"/>
    <path id="linkedin-2" fill="#FFFFFF" data-name="linkedin" d="M10,0A10,10,0,1,0,20,10,10,10,0,0,0,10,0ZM7.094,15.117H4.659V7.79H7.094ZM5.876,6.79H5.861a1.269,1.269,0,1,1,.032-2.532A1.27,1.27,0,1,1,5.876,6.79Zm10,8.328H13.441V11.2c0-.985-.353-1.657-1.234-1.657a1.333,1.333,0,0,0-1.25.891,1.668,1.668,0,0,0-.08.594v4.092H8.442s.032-6.64,0-7.327h2.435V8.828a2.418,2.418,0,0,1,2.195-1.209c1.6,0,2.8,1.047,2.8,3.3Zm0,0" transform="translate(-21801 355)"/>
  </g>
</svg>
