<svg xmlns="http://www.w3.org/2000/svg" width="28" height="28" viewBox="0 0 28 28">
  <g id="twitter180" transform="translate(21866 -351)">
    <rect id="Rectangle_7629" data-name="Rectangle 7629" width="28" height="28" transform="translate(-21866 351)" fill="none"/>
    <path  fill="#FFFFFF" id="Subtraction_2" data-name="Subtraction 2" d="M-22310.707-170.786a11.364,11.364,0,0,1-6.295-1.843,7.577,7.577,0,0,0,1.014.056,8.022,8.022,0,0,0,5.068-1.736,3.865,3.865,0,0,1-2.412-.851,4.14,4.14,0,0,1-1.4-2.027,2.017,2.017,0,0,0,.744.106,4.8,4.8,0,0,0,1.07-.134,4.056,4.056,0,0,1-2.324-1.411,4.064,4.064,0,0,1-.93-2.666,4.4,4.4,0,0,0,1.836.5,4,4,0,0,1-1.836-3.439,4.169,4.169,0,0,1,.559-2.027,11.744,11.744,0,0,0,3.8,3.1,11.169,11.169,0,0,0,4.682,1.139,3.14,3.14,0,0,1-.135-.9,3.9,3.9,0,0,1,1.215-2.9,4.039,4.039,0,0,1,2.918-1.187,3.854,3.854,0,0,1,2.963,1.255,10.227,10.227,0,0,0,2.611-.963,3.871,3.871,0,0,1-1.787,2.268,9.317,9.317,0,0,0,2.346-.667,8.558,8.558,0,0,1-2.049,2.162v.5a12.16,12.16,0,0,1-.488,3.439h-4.58a5,5,0,0,0-5,5,4.973,4.973,0,0,0,.967,2.958A12.488,12.488,0,0,1-22310.707-170.786Z" transform="translate(453.117 544)"/>
    <path  fill="#FFFFFF" id="Subtraction_3" data-name="Subtraction 3" d="M-22306-179h-7a4,4,0,0,1-4-4,4,4,0,0,1,4-4h7a4,4,0,0,1,4,4A4,4,0,0,1-22306-179Zm-3.506-6.043c-.881,0-1.473.441-1.473,1.1a1.012,1.012,0,0,0,.734.924,1.1,1.1,0,0,0-.857,1.014c0,.66.641,1.1,1.6,1.1s1.6-.459,1.6-1.143a1.048,1.048,0,0,0-.855-1,1.01,1.01,0,0,0,.727-.924C-22308.041-184.616-22308.631-185.046-22309.508-185.046Zm3.674.011c-.986,0-1.646.844-1.646,2.1,0,1.225.633,2.016,1.613,2.016s1.646-.844,1.646-2.1C-22304.221-184.224-22304.869-185.035-22305.834-185.035Zm-8.484,3.377h0V-181h2.543v-.655h-.8v-3.389l-1.842.3.045.577,1.02-.112v2.627h-.969Zm4.811.113c-.471,0-.789-.225-.789-.56,0-.3.271-.537.762-.666.547.132.813.35.813.666C-22308.723-181.77-22309.039-181.545-22309.508-181.545Zm3.674-.022c-.506,0-.834-.574-.834-1.462,0-.807.322-1.35.8-1.35.506,0,.834.574.834,1.462C-22305.033-182.085-22305.34-181.568-22305.834-181.568Zm-3.629-1.719h0c-.494-.121-.734-.317-.734-.6,0-.313.271-.515.689-.515s.689.2.689.515c0,.272-.217.474-.645.6Z" transform="translate(462 553)"/>
  </g>
</svg>
