<svg xmlns="http://www.w3.org/2000/svg" width="28" height="28" viewBox="0 0 28 28">
  <g id="twitter" transform="translate(21866 -351)">
    <rect id="Rectangle_7629" data-name="Rectangle 7629" width="28" height="28" transform="translate(-21866 351)" fill="none"/>
    <path id="e0f9"  fill="#fff" d="M9.733,4.08a3.894,3.894,0,0,1,1.213-2.893A4.026,4.026,0,0,1,13.867,0a3.829,3.829,0,0,1,2.96,1.253A10.178,10.178,0,0,0,19.44.293,3.881,3.881,0,0,1,17.653,2.56,9.363,9.363,0,0,0,20,1.893a8.465,8.465,0,0,1-2.053,2.16V4.56A11.894,11.894,0,0,1,16.667,10a11.219,11.219,0,0,1-4.053,4.4,11.29,11.29,0,0,1-6.32,1.813A11.291,11.291,0,0,1,0,14.373a8.306,8.306,0,0,0,1.013.053A7.993,7.993,0,0,0,6.08,12.693a3.856,3.856,0,0,1-2.413-.853,4.139,4.139,0,0,1-1.4-2.027,2.077,2.077,0,0,0,.747.107A4.852,4.852,0,0,0,4.08,9.787,4.114,4.114,0,0,1,.827,5.707a4.46,4.46,0,0,0,1.84.507,3.989,3.989,0,0,1-1.84-3.44A4.158,4.158,0,0,1,1.387.747a11,11,0,0,0,8.48,4.24A3.2,3.2,0,0,1,9.733,4.08ZM20,16.107" transform="translate(-21861.883 357)"/>
  </g>
</svg>
