<svg xmlns="http://www.w3.org/2000/svg" width="28" height="28" viewBox="0 0 28 28">
  <g id="voucher_card" transform="translate(21993 1489)">
    <rect id="Rectangle_7586" data-name="Rectangle 7586" width="28" height="28" transform="translate(-21993 -1489)" fill="none"/>
    <g id="Component_5_1" data-name="Component 5 – 1" transform="translate(-21992 -1487.4)">
      <path id="Path_3148" data-name="Path 3148" d="M25.4,7.2H22.566A3.891,3.891,0,0,0,15.65,3.755L15,4.626l-.65-.884A3.892,3.892,0,0,0,7.434,7.2H4.6A2.58,2.58,0,0,0,2.013,9.8L2,24.1a2.591,2.591,0,0,0,2.6,2.6H25.4A2.591,2.591,0,0,0,28,24.1V9.8A2.591,2.591,0,0,0,25.4,7.2ZM18.9,4.6a1.3,1.3,0,1,1-1.3,1.3A1.3,1.3,0,0,1,18.9,4.6Zm-7.8,0A1.3,1.3,0,1,1,9.8,5.9,1.3,1.3,0,0,1,11.1,4.6ZM25.4,24.1H4.6V21.5H25.4Zm0-6.5H4.6V9.8h6.6L8.5,13.479,10.606,15,13.7,10.788,15,9.02l1.3,1.768L19.394,15,21.5,13.479,18.8,9.8h6.6Z" transform="translate(-2 -2)"/>
    </g>
  </g>
</svg>
