<svg xmlns="http://www.w3.org/2000/svg" width="28" height="28" viewBox="0 0 28 28">
  <g id="youtube" transform="translate(21746 -351)">
    <rect id="Rectangle_7631" data-name="Rectangle 7631" width="28" height="28" transform="translate(-21746 351)" fill="none"/>
    <path id="e0a3"  fill="#fff" d="M17.3.274a97.494,97.494,0,0,0-14.624,0A2.409,2.409,0,0,0,.958,1.408,4.531,4.531,0,0,0,.137,3.519a47.346,47.346,0,0,0,0,7.195,4.531,4.531,0,0,0,.821,2.111A2.549,2.549,0,0,0,2.678,14,105.135,105.135,0,0,0,17.3,14a2.7,2.7,0,0,0,1.72-1.212,4.5,4.5,0,0,0,.821-2.072,49.95,49.95,0,0,0,0-7.39,4.4,4.4,0,0,0-.762-2.072A2.141,2.141,0,0,0,17.3.274Zm-9.814,10.4V3.48l6.256,3.6ZM20,15.875" transform="translate(-21741.883 357)"/>
  </g>
</svg>
